<?xml version="1.0" standalone="no"?>
<!DOCTYPE svg PUBLIC "-//W3C//DTD SVG 20010904//EN"
 "http://www.w3.org/TR/2001/REC-SVG-20010904/DTD/svg10.dtd">
<svg version="1.0" xmlns="http://www.w3.org/2000/svg"
 width="349.000000pt" height="349.000000pt" viewBox="0 0 349.000000 349.000000"
 preserveAspectRatio="xMidYMid meet">

<g transform="translate(0.000000,349.000000) scale(0.100000,-0.100000)"
fill="#000000" stroke="none">
<path d="M0 1745 l0 -1745 1745 0 1745 0 0 1745 0 1745 -1745 0 -1745 0 0
-1745z m1140 768 c30 -7 97 -34 148 -59 89 -44 94 -45 112 -29 11 10 22 33 26
51 5 28 11 34 32 34 l25 0 -6 -142 c-4 -79 -7 -203 -7 -275 l0 -133 -24 0
c-22 0 -25 6 -31 53 -25 181 -123 354 -241 423 -88 52 -217 51 -296 -1 -85
-56 -109 -191 -52 -294 38 -71 98 -123 309 -271 348 -243 437 -366 422 -582
-13 -189 -130 -316 -352 -384 -83 -25 -103 -28 -265 -28 -195 -1 -247 9 -379
70 -41 19 -84 34 -96 34 -22 0 -39 -27 -47 -75 -2 -13 -11 -20 -26 -20 -12 0
-22 3 -22 8 0 4 0 151 0 328 l0 320 28 -3 c26 -3 27 -6 34 -78 17 -165 80
-338 154 -420 60 -66 122 -93 230 -98 114 -5 180 14 233 67 68 68 79 184 28
294 -40 87 -106 146 -390 347 -137 97 -230 191 -272 275 -28 57 -30 67 -30
180 0 111 2 124 28 176 50 103 169 192 307 229 116 31 306 33 420 3z m1367
-24 c281 -38 485 -155 598 -344 103 -173 131 -464 64 -681 -67 -219 -238 -397
-467 -486 -171 -67 -208 -71 -719 -72 l-463 -1 0 23 c0 18 6 22 30 22 44 0 96
24 112 52 10 18 14 150 16 643 2 341 0 649 -3 684 -9 81 -38 116 -108 126 -37
6 -47 11 -47 26 0 18 16 19 454 19 265 0 487 -4 533 -11z"/>
<path d="M2200 2448 c-14 -7 -33 -29 -42 -48 -17 -32 -18 -87 -18 -700 0 -613
1 -668 18 -700 23 -48 72 -63 176 -57 97 6 188 47 241 110 103 120 155 339
155 655 0 403 -80 630 -255 720 -42 22 -66 26 -150 29 -69 3 -108 0 -125 -9z"/>
</g>
</svg>
